<svg width="164" height="175" viewBox="0 0 164 175" fill="none" xmlns="http://www.w3.org/2000/svg">
<path d="M159.817 44.4336H154.937H123.282V30.9852C123.282 27.3212 125.315 24.0047 128.587 22.3298L156.847 7.8739C158.902 6.82312 159.713 4.31159 158.658 2.2642C157.602 0.216805 155.081 -0.590652 153.025 0.461792L124.765 14.9177C118.689 18.025 114.914 24.1822 114.914 30.9843V44.4328H83.2592H78.3788C76.0688 44.4328 74.1954 46.2977 74.1954 48.5992V54.7206C74.1954 57.0221 76.0688 58.887 78.3788 58.887H79.6456L82.5689 111.069C80.9073 110.782 79.2021 110.623 77.4593 110.623H29.7951C13.366 110.623 0 123.935 0 140.297C0 143.633 2.21386 146.465 5.25437 147.411C5.10377 148.103 5.0201 148.821 5.0201 149.558C5.0201 150.315 5.11046 151.05 5.2686 151.759C2.21303 152.768 0 155.636 0 159.014V167.354C0 171.569 3.44379 175 7.67741 175H90.1083H99.5779H148.088C150.308 175 152.141 173.273 152.265 171.065L158.55 58.8862H159.817C162.127 58.8862 164 57.0213 164 54.7197V48.5984C164.001 46.2985 162.127 44.4336 159.817 44.4336ZM29.7951 118.956H77.461C88.9804 118.956 98.4057 128.055 98.8709 139.415H92.0511H15.205H8.38524C8.85127 128.055 18.2765 118.956 29.7951 118.956ZM8.36683 159.702H15.205H92.0511H98.8893V166.668H8.36683V159.702Z" fill="#9251AC"/>
</svg>
