<svg width="257" height="209" viewBox="0 0 257 209" fill="none" xmlns="http://www.w3.org/2000/svg">
<g clip-path="url(#clip0_24_6)">
<path d="M8.82601 140.867H247.902V131.101C247.902 128.738 247.442 126.542 246.626 124.576C245.748 122.485 244.451 120.624 242.841 119.013C241.858 118.03 240.749 117.131 239.557 116.337C238.344 115.521 237.047 114.81 235.688 114.203C232.028 113.409 228.389 112.656 224.77 111.945C221.131 111.234 217.471 110.565 213.79 109.937C213.623 109.916 213.497 109.895 213.33 109.854C211.469 109.54 209.691 109.247 207.997 108.975C206.303 108.703 204.504 108.432 202.622 108.139H202.58C189.78 106.508 177.022 105.253 164.285 104.416C151.527 103.58 138.832 103.162 126.22 103.141C118.733 103.141 111.266 103.266 103.8 103.559C96.375 103.852 88.9084 104.27 81.4419 104.856H81.4001C74.4146 105.504 67.45 106.319 60.4644 107.26C53.4998 108.202 46.5143 109.31 39.487 110.544L38.7131 110.732C38.5667 110.774 38.4203 110.795 38.2948 110.795C38.1694 110.816 38.0439 110.816 37.9184 110.816C34.6348 111.401 31.2675 112.049 27.7957 112.74C24.4284 113.409 21.0611 114.12 17.7148 114.852C16.8782 115.312 16.0834 115.835 15.3305 116.378C14.5776 116.943 13.8455 117.549 13.1972 118.198C11.7959 119.599 10.6874 121.209 9.93449 123.008C9.22339 124.702 8.82601 126.584 8.82601 128.633V140.867ZM29.6989 0H224.185C226.716 0 229.142 0.501901 231.359 1.42205C233.659 2.38403 235.73 3.78517 237.466 5.5C239.202 7.23574 240.603 9.30608 241.544 11.6065C242.464 13.8232 242.966 16.249 242.966 18.7795V108.055C244.033 108.683 245.079 109.373 246.041 110.125C247.128 110.962 248.153 111.84 249.094 112.781C251.52 115.207 253.486 118.03 254.804 121.209C256.059 124.2 256.749 127.525 256.749 131.122V143.857C256.812 144.067 256.875 144.276 256.916 144.485V144.527C256.958 144.798 256.979 145.049 256.979 145.3C256.979 145.572 256.958 145.844 256.895 146.116C256.854 146.325 256.791 146.534 256.728 146.743V204.587C256.728 205.8 256.226 206.909 255.431 207.703C254.637 208.498 253.528 209 252.315 209H243.217C242.192 209 241.251 208.644 240.498 208.059C239.745 207.473 239.181 206.637 238.951 205.675C237.277 200.865 235.583 197.059 233.764 194.089C231.965 191.162 230.041 189.07 227.824 187.586C225.586 186.101 222.909 185.16 219.667 184.595C216.363 184.009 212.514 183.821 207.934 183.842L41.1183 184.051H41.0347C37.7511 183.989 35.0531 184.407 32.7943 185.285C30.5564 186.163 28.7368 187.481 27.231 189.175C25.5369 191.057 24.1147 193.462 22.818 196.264C21.5003 199.129 20.3082 202.392 19.116 205.968C18.8232 206.888 18.2376 207.62 17.5056 208.143C16.8154 208.644 15.9788 208.937 15.1213 208.979C15.0586 209 14.9958 209 14.9331 209H4.413C3.19995 209 2.09147 208.498 1.29671 207.703C0.501953 206.909 0 205.8 0 204.587V128.654C0 125.371 0.627441 122.359 1.75684 119.641C2.96989 116.755 4.74764 114.183 6.9646 111.966C7.59204 111.338 8.28223 110.711 9.01424 110.125C9.64168 109.624 10.2691 109.143 10.9384 108.703V18.5913C10.9384 16.0608 11.4403 13.6559 12.3606 11.481C13.3227 9.20152 14.724 7.15209 16.4599 5.43726C18.1958 3.72243 20.2664 2.36312 22.5461 1.42205C24.763 0.501901 27.1682 0 29.6989 0ZM224.185 8.82509H29.6989C28.3394 8.82509 27.0427 9.09696 25.8506 9.57795C24.6166 10.0798 23.5291 10.8118 22.6088 11.711C21.7095 12.5894 20.9775 13.6768 20.4755 14.8479C20.0154 15.9981 19.7644 17.2529 19.7644 18.5913V104.458C20.3918 104.249 21.0193 104.082 21.6676 103.914C22.6925 103.643 23.7173 103.413 24.7421 103.245C26.1643 102.994 27.712 102.722 29.3852 102.43C30.6401 102.221 31.9786 101.99 33.359 101.781V79.865C33.359 76.5608 34.0282 73.403 35.2204 70.5171C36.4753 67.5057 38.2948 64.808 40.5536 62.5494C42.8124 60.2909 45.5104 58.4715 48.5221 57.2167C51.4084 56.0247 54.5665 55.3555 57.871 55.3555H99.324C102.629 55.3555 105.787 56.0247 108.673 57.2167C111.685 58.4715 114.383 60.2909 116.641 62.5494C118.9 64.808 120.72 67.5057 121.975 70.5171C123.167 73.403 123.836 76.5608 123.836 79.865V93.8555C125.3 93.8346 126.764 93.8346 128.249 93.8346V79.865C128.249 76.5608 128.918 73.403 130.11 70.5171C131.365 67.5057 133.185 64.808 135.444 62.5494C137.702 60.2909 140.4 58.4715 143.412 57.2167C146.298 56.0247 149.457 55.3555 152.761 55.3555H194.214C197.519 55.3555 200.677 56.0247 203.563 57.2167C206.575 58.4715 209.273 60.2909 211.531 62.5494C213.79 64.808 215.61 67.5057 216.865 70.5171C218.057 73.403 218.726 76.5608 218.726 79.865V101.489C220.295 101.719 221.968 101.99 223.767 102.283C225.753 102.597 227.657 102.911 229.497 103.224C230.438 103.392 231.4 103.58 232.362 103.81C232.969 103.956 233.555 104.103 234.119 104.27V18.7795C234.119 17.4411 233.847 16.1654 233.366 14.9943C232.864 13.7814 232.111 12.6939 231.191 11.7529C230.271 10.8327 229.163 10.0798 227.97 9.57795C226.799 9.09696 225.523 8.82509 224.185 8.82509ZM90.3725 95.2776C94.5763 94.9639 98.8011 94.692 103.089 94.4829C107.042 94.2738 111.036 94.1274 115.031 94.0228V79.865C115.031 77.7528 114.613 75.7243 113.839 73.884C113.044 71.9601 111.873 70.2452 110.409 68.7814C108.966 67.3384 107.23 66.1673 105.306 65.3517C103.465 64.5779 101.436 64.1597 99.324 64.1597H57.871C55.7586 64.1597 53.7299 64.5779 51.8894 65.3517C49.9653 66.1464 48.2502 67.3175 46.7862 68.7814C45.3431 70.2243 44.1719 71.9601 43.3562 73.884C42.5824 75.7243 42.1641 77.7528 42.1641 79.865V100.38C45.5522 99.8783 48.9823 99.4183 52.4959 98.9582C56.2815 98.4772 60.0461 98.038 63.769 97.6198C65.2121 97.4525 66.7598 97.2643 68.3702 97.097C69.8761 96.9297 71.4447 96.7833 73.1178 96.616C75.9622 96.3441 78.7857 96.0932 81.5674 95.8631C84.4327 95.6749 87.3608 95.4658 90.3725 95.2776ZM137.075 93.8973C139.606 93.9392 142.136 94.0019 144.667 94.0856C147.47 94.1692 150.272 94.2947 153.054 94.4202H153.075C157.655 94.5875 162.131 94.7966 166.481 95.0475C170.831 95.2985 175.077 95.6122 179.135 95.9677C185.032 96.4905 190.742 97.1179 196.159 97.8498C201.011 98.519 205.613 99.2719 209.921 100.108V79.865C209.921 77.7528 209.503 75.7243 208.729 73.884C207.934 71.9601 206.763 70.2452 205.299 68.7814C203.856 67.3384 202.12 66.1673 200.196 65.3517C198.355 64.5779 196.326 64.1597 194.214 64.1597H152.782C150.67 64.1597 148.641 64.5779 146.8 65.3517C144.876 66.1464 143.161 67.3175 141.697 68.7814C140.254 70.2243 139.083 71.9601 138.267 73.884C137.493 75.7243 137.075 77.7528 137.075 79.865V93.8973ZM247.923 149.713H8.82601V200.175H11.8168C12.988 196.871 14.2011 193.797 15.5605 191.057C17.0246 188.129 18.6768 185.536 20.6847 183.298C23.0689 180.622 25.8715 178.551 29.2388 177.171C32.606 175.812 36.538 175.122 41.2647 175.226L207.934 175.017C213.309 175.017 217.91 175.268 221.926 176.042C226.004 176.816 229.518 178.133 232.676 180.224C235.604 182.169 238.114 184.741 240.373 188.108C242.527 191.329 244.451 195.281 246.292 200.154H247.881V149.713H247.923Z" fill="#023047"/>
</g>
<defs>
<clipPath id="clip0_24_6">
<rect width="257" height="209" fill="white"/>
</clipPath>
</defs>
</svg>
