<svg width="250" height="196" viewBox="0 0 250 196" fill="none" xmlns="http://www.w3.org/2000/svg">
<g clip-path="url(#clip0_23_2)">
<path d="M24.4141 149.398C24.6853 102.329 24.9498 55.3274 25.2075 8.39367C25.2186 6.8832 25.754 5.42337 26.7224 4.26327C27.6907 3.10318 29.0321 2.31471 30.5176 2.03241C47.6074 -1.52421 74.5443 -0.629972 92.8345 6.38164C105.715 11.0277 117.005 19.2399 125.387 30.0585C134.036 19.7578 145.27 11.9375 157.939 7.39782C175.212 0.812998 201.416 -0.772236 220.195 2.03241C221.745 2.24232 223.167 3.00277 224.202 4.17463C225.237 5.34649 225.815 6.8514 225.83 8.41399V149.988C225.827 150.846 225.655 151.696 225.323 152.487C224.991 153.279 224.506 153.998 223.896 154.602C223.285 155.206 222.561 155.684 221.766 156.008C220.97 156.332 220.118 156.496 219.259 156.491C218.752 156.484 218.247 156.423 217.753 156.308C201.717 154.23 185.418 155.75 170.044 160.759C158.687 164.988 147.907 170.628 137.96 177.546C151.948 173.21 166.528 171.084 181.173 171.246C199.965 171.545 218.667 173.917 236.938 178.319V30.1602H243.469C245.201 30.1602 246.862 30.8475 248.087 32.0709C249.312 33.2944 250 34.9538 250 36.684V186.854C250 188.585 249.312 190.244 248.087 191.468C246.862 192.691 245.201 193.378 243.469 193.378C242.777 193.373 242.09 193.256 241.435 193.033C221.753 187.627 201.478 184.671 181.071 184.233C163.037 184.005 145.164 187.651 128.662 194.923C127.555 195.626 126.271 196 124.959 196C123.648 196 122.363 195.626 121.257 194.923C104.756 187.649 86.8823 184.004 68.8477 184.233C48.4864 184.696 28.26 187.665 8.62631 193.073C7.97101 193.297 7.28411 193.413 6.5918 193.419C5.72561 193.427 4.86647 193.263 4.06438 192.936C3.26229 192.609 2.5333 192.126 1.91984 191.516C1.30638 190.905 0.820708 190.178 0.49111 189.378C0.161513 188.577 -0.00542855 187.72 6.49344e-06 186.854V36.684C6.49344e-06 34.9538 0.688067 33.2944 1.91282 32.0709C3.13758 30.8475 4.7987 30.1602 6.53077 30.1602H13.0615V178.319C31.3326 173.917 50.0347 171.545 68.8273 171.246C84.5268 171.06 100.146 173.513 115.031 178.501C105.628 170.904 94.9131 165.091 83.4147 161.348C69.1732 156.674 47.4447 155.109 31.5552 156.471C30.6937 156.555 29.8242 156.466 28.9971 156.211C28.17 155.957 27.4019 155.54 26.7374 154.986C26.073 154.432 25.5254 153.751 25.1265 152.984C24.7277 152.217 24.4855 151.378 24.4141 150.516C24.3935 150.144 24.3935 149.771 24.4141 149.398ZM149.821 130.883C149.308 131.265 148.722 131.538 148.099 131.685C147.476 131.831 146.83 131.849 146.2 131.736C145.57 131.623 144.97 131.383 144.437 131.029C143.904 130.676 143.449 130.217 143.101 129.681C142.752 129.145 142.518 128.543 142.411 127.913C142.305 127.282 142.329 126.637 142.482 126.016C142.635 125.396 142.914 124.813 143.302 124.304C143.689 123.796 144.177 123.372 144.735 123.059C152.241 118.403 160.308 114.716 168.742 112.084C177.3 109.191 186.184 107.368 195.19 106.658C195.802 106.625 196.415 106.712 196.993 106.915C197.571 107.118 198.103 107.433 198.559 107.841C199.016 108.25 199.387 108.744 199.652 109.296C199.917 109.848 200.07 110.447 200.104 111.058C200.137 111.669 200.05 112.281 199.846 112.858C199.643 113.436 199.328 113.967 198.919 114.423C198.51 114.879 198.015 115.25 197.463 115.515C196.91 115.779 196.311 115.933 195.699 115.966C187.529 116.649 179.474 118.328 171.712 120.966C164.024 123.333 156.669 126.666 149.821 130.883ZM150.228 94.7889C149.184 95.4519 147.919 95.6734 146.711 95.4047C145.504 95.136 144.452 94.3991 143.789 93.3561C143.125 92.3131 142.903 91.0495 143.172 89.8432C143.441 88.6369 144.179 87.5867 145.223 86.9237C152.714 82.3713 160.735 78.7538 169.108 76.1523C177.528 73.3365 186.259 71.5486 195.109 70.8275C196.32 70.8068 197.491 71.2557 198.378 72.0798C199.264 72.904 199.796 74.0392 199.862 75.247C199.927 76.4548 199.522 77.641 198.731 78.5565C197.939 79.4719 196.823 80.0452 195.618 80.156C187.563 80.8236 179.618 82.4613 171.956 85.0336C164.342 87.3875 157.045 90.6636 150.228 94.7889ZM150.35 58.8163C149.83 59.1446 149.251 59.3674 148.645 59.472C148.039 59.5767 147.419 59.5611 146.819 59.4261C146.219 59.2912 145.652 59.0396 145.149 58.6856C144.647 58.3316 144.219 57.8823 143.89 57.3632C143.562 56.8441 143.339 56.2654 143.234 55.6602C143.129 55.055 143.145 54.4351 143.28 53.8359C143.415 53.2367 143.667 52.6699 144.021 52.168C144.376 51.666 144.825 51.2387 145.345 50.9105C152.825 46.3791 160.833 42.7821 169.189 40.2C177.583 37.3965 186.287 35.6222 195.109 34.9159C195.721 34.8825 196.333 34.9698 196.911 35.1729C197.489 35.376 198.022 35.6908 198.478 36.0994C198.934 36.5079 199.305 37.0023 199.57 37.5542C199.835 38.1061 199.989 38.7047 200.022 39.3159C200.056 39.9271 199.968 40.5388 199.765 41.1163C199.562 41.6937 199.247 42.2255 198.838 42.6812C198.429 43.137 197.934 43.5078 197.381 43.7725C196.829 44.0372 196.23 44.1907 195.618 44.224C187.591 44.8925 179.674 46.5233 172.038 49.0813C164.438 51.4301 157.154 54.6994 150.35 58.8163ZM105.265 123.059C105.823 123.372 106.311 123.796 106.698 124.304C107.086 124.813 107.365 125.396 107.518 126.016C107.671 126.637 107.695 127.282 107.589 127.913C107.482 128.543 107.248 129.145 106.899 129.681C106.551 130.217 106.096 130.676 105.563 131.029C105.03 131.383 104.43 131.623 103.8 131.736C103.17 131.849 102.524 131.831 101.901 131.685C101.278 131.538 100.692 131.265 100.179 130.883C93.3569 126.672 86.0288 123.339 78.3691 120.966C70.6075 118.328 62.5521 116.649 54.3823 115.966C53.7705 115.93 53.1718 115.774 52.6203 115.507C52.0689 115.24 51.5755 114.867 51.1684 114.409C50.7612 113.951 50.4483 113.418 50.2475 112.84C50.0467 112.261 49.9619 111.649 49.998 111.038C50.034 110.426 50.1903 109.828 50.4577 109.277C50.7252 108.727 51.0986 108.234 51.5568 107.827C52.0149 107.42 52.5487 107.108 53.1278 106.907C53.7069 106.707 54.3198 106.622 54.9316 106.658C63.9384 107.368 72.8224 109.191 81.3802 112.084C89.8141 114.716 97.8806 118.403 105.387 123.059H105.265ZM104.777 86.9237C105.821 87.5975 106.555 88.658 106.816 89.8719C107.077 91.0859 106.845 92.3538 106.171 93.3968C105.496 94.4398 104.435 95.1724 103.219 95.4335C102.004 95.6945 100.735 95.4627 99.6908 94.7889C92.8736 90.6636 85.5765 87.3875 77.9622 85.0336C70.3007 82.4613 62.356 80.8236 54.3009 80.156C53.0626 80.0725 51.9082 79.5009 51.0917 78.5671C50.2752 77.6333 49.8635 76.4138 49.9471 75.1767C50.0307 73.9397 50.6029 72.7865 51.5377 71.9709C52.4724 71.1553 53.6933 70.744 54.9316 70.8275C63.7819 71.5486 72.5123 73.3365 80.9326 76.1523C89.3052 78.7538 97.3268 82.3713 104.818 86.9237H104.777ZM104.655 50.9105C105.214 51.2165 105.705 51.6335 106.098 52.1359C106.49 52.6384 106.775 53.2156 106.936 53.8322C107.097 54.4488 107.13 55.0918 107.033 55.7215C106.936 56.3513 106.711 56.9546 106.372 57.4944C106.033 58.0342 105.587 58.499 105.062 58.8604C104.536 59.2218 103.943 59.4721 103.317 59.5959C102.691 59.7197 102.047 59.7144 101.423 59.5803C100.8 59.4463 100.21 59.1863 99.6908 58.8163C92.8863 54.6994 85.6028 51.4301 78.0029 49.0813C70.3665 46.5233 62.4496 44.8925 54.423 44.224C53.8112 44.1907 53.2119 44.0372 52.6594 43.7725C52.107 43.5078 51.6121 43.137 51.2031 42.6812C50.7941 42.2255 50.4789 41.6937 50.2756 41.1163C50.0724 40.5388 49.9849 39.9271 50.0183 39.3159C50.0517 38.7047 50.2053 38.1061 50.4703 37.5542C50.7353 37.0023 51.1065 36.5079 51.5627 36.0994C52.019 35.6908 52.5513 35.376 53.1294 35.1729C53.7074 34.9698 54.3198 34.8825 54.9316 34.9159C63.7538 35.6222 72.4575 37.3965 80.8512 40.2C89.2081 42.7821 97.2162 46.3791 104.696 50.9105H104.655ZM212.728 14.2265C197.632 12.8039 175.985 14.4704 162.415 19.6122C149.8 24.0297 138.985 32.4622 131.632 43.6143V166.084C142.205 158.845 153.63 152.934 165.649 148.484C180.841 143.623 196.808 141.645 212.728 142.651V14.2265ZM118.571 164.824V43.4314C111.735 31.3796 100.688 23.3315 88.1958 18.5554C73.9543 13.129 52.0833 11.9096 38.2284 13.881L37.4959 143.057C52.6123 142.509 73.4863 144.439 87.382 148.971C98.547 152.587 109.072 157.937 118.571 164.824Z" fill="#FB8500"/>
</g>
<defs>
<clipPath id="clip0_23_2">
<rect width="250" height="196" fill="white"/>
</clipPath>
</defs>
</svg>
