<svg width="228" height="200" viewBox="0 0 228 200" fill="none" xmlns="http://www.w3.org/2000/svg">
<path fill-rule="evenodd" clip-rule="evenodd" d="M46.0233 62.1217C46.0233 60.5905 47.2702 59.3436 48.8015 59.3436C50.3327 59.3436 51.5796 60.5905 51.5796 62.1217V62.428C51.5796 63.9593 50.3327 65.2061 48.8015 65.2061C47.2702 65.2061 46.0233 63.9593 46.0233 62.428V62.1217ZM42.9388 40.564C42.9388 42.0952 41.692 43.3421 40.1607 43.3421C38.6294 43.3421 37.3826 42.0952 37.3826 40.564C37.3826 37.414 38.6623 34.5594 40.7294 32.4921C42.7966 30.4249 45.6513 29.1453 48.8013 29.1453C51.9513 29.1453 54.8059 30.425 56.8731 32.4921C58.9403 34.5593 60.2199 37.414 60.2199 40.564C60.2199 42.9593 59.5309 45.0703 58.284 46.864C57.0262 48.6686 55.2213 50.0904 52.9903 51.0967C51.5684 51.742 51.5684 52.3983 51.5794 54.2795V54.7279C51.5903 56.2592 50.3544 57.4951 48.8231 57.5061C47.2918 57.517 46.0559 56.2811 46.045 54.7498V54.3014C46.0121 49.7732 46.0012 48.1763 50.7044 46.0436C52.0388 45.442 53.0669 44.6545 53.734 43.692C54.3247 42.8389 54.6528 41.7889 54.6528 40.553C54.6528 38.9342 53.9965 37.4685 52.9356 36.4076C51.8746 35.3466 50.409 34.6904 48.7902 34.6904C47.1713 34.6904 45.7057 35.3466 44.6448 36.4076C43.5838 37.4685 42.9276 38.9341 42.9276 40.553L42.9388 40.564ZM179.582 61.4766C179.582 59.9454 180.829 58.6985 182.36 58.6985C183.891 58.6985 185.138 59.9453 185.138 61.4766V61.7829C185.138 63.3141 183.891 64.561 182.36 64.561C180.829 64.561 179.582 63.3141 179.582 61.7829V61.4766ZM176.497 39.9188C176.497 41.4501 175.25 42.697 173.719 42.697C172.188 42.697 170.941 41.4501 170.941 39.9188C170.941 36.7688 172.221 33.9142 174.288 31.847C176.355 29.7798 179.21 28.5002 182.36 28.5002C185.51 28.5002 188.364 29.7798 190.431 31.847C192.499 33.9142 193.778 36.7688 193.778 39.9188C193.778 42.3142 193.089 44.4252 191.842 46.2188C190.584 48.0235 188.78 49.4453 186.549 50.4516C185.127 51.0969 185.127 51.7532 185.138 53.6344V54.0828C185.149 55.614 183.913 56.85 182.381 56.8609C180.85 56.8719 179.614 55.6359 179.603 54.1047V53.6562C179.571 49.1281 179.56 47.5312 184.263 45.3985C185.597 44.7969 186.625 44.0094 187.292 43.0469C187.883 42.1938 188.211 41.1438 188.211 39.9078C188.211 38.2891 187.555 36.8234 186.494 35.7624C185.433 34.7015 183.967 34.0453 182.349 34.0453C180.73 34.0453 179.264 34.7015 178.203 35.7624C177.142 36.8234 176.486 38.289 176.486 39.9078L176.497 39.9188ZM127.366 118.68C123.92 115.235 119.151 113.102 113.891 113.102C108.63 113.102 103.861 115.235 100.416 118.68C96.9702 122.125 94.8374 126.894 94.8374 132.155C94.8374 137.416 96.9702 142.185 100.416 145.63C103.861 149.075 108.63 151.208 113.891 151.208C119.151 151.208 123.92 149.075 127.366 145.63C130.811 142.185 132.944 137.416 132.944 132.155C132.944 126.894 130.811 122.125 127.366 118.68ZM113.891 107.546C120.694 107.546 126.841 110.302 131.303 114.753C135.755 119.205 138.511 125.363 138.511 132.166C138.511 138.969 135.755 145.116 131.303 149.579C126.852 154.03 120.694 156.786 113.891 156.786C107.087 156.786 100.941 154.03 96.4779 149.579C92.0265 145.127 89.2702 138.969 89.2702 132.166C89.2702 125.363 92.0264 119.216 96.4779 114.753C100.929 110.302 107.087 107.546 113.891 107.546ZM58.7558 114.731C55.3104 111.286 50.5417 109.153 45.2808 109.153C40.0198 109.153 35.2512 111.286 31.8058 114.731C28.3604 118.177 26.2276 122.946 26.2276 128.206C26.2276 133.467 28.3604 138.236 31.8058 141.681C35.2512 145.127 40.0198 147.26 45.2808 147.26C50.5417 147.26 55.3104 145.127 58.7558 141.681C62.2012 138.236 64.3339 133.467 64.3339 128.206C64.3339 122.946 62.2011 118.177 58.7558 114.731ZM45.2808 103.586C52.0839 103.586 58.2308 106.342 62.6934 110.794C67.1448 115.245 69.9012 121.403 69.9012 128.206C69.9012 135.01 67.1449 141.156 62.6934 145.619C58.242 150.071 52.0839 152.827 45.2808 152.827C38.4776 152.827 32.3308 150.071 27.8681 145.619C23.4167 141.168 20.6604 135.01 20.6604 128.206C20.6604 121.403 23.4166 115.256 27.8681 110.794C32.3196 106.342 38.4776 103.586 45.2808 103.586ZM145.524 163.831C141.684 161.665 137.255 160.429 132.552 160.429H95.2109C90.5078 160.429 86.0782 161.665 82.2391 163.831C80.0844 161.786 77.5905 160.09 74.8454 158.844C71.5095 157.323 67.8017 156.481 63.9299 156.481H26.5891C19.2718 156.481 12.6328 159.467 7.80948 164.291C2.99684 169.103 0 175.753 0 183.07V192.487C0 194.019 1.24687 195.265 2.77813 195.265C4.3094 195.265 5.55626 194.019 5.55626 192.487V183.07C5.55626 177.295 7.91877 172.034 11.7359 168.217C15.5531 164.4 20.8031 162.037 26.589 162.037H63.9298C67.0143 162.037 69.9344 162.705 72.5703 163.897C74.4078 164.728 76.1031 165.822 77.6126 167.123C77.2079 167.484 76.8141 167.856 76.4313 168.239C71.6187 173.051 68.6218 179.701 68.6218 187.018V196.436C68.6218 197.967 69.8687 199.214 71.4 199.214C72.9312 199.214 74.1781 197.967 74.1781 196.436V187.018C74.1781 181.232 76.5406 175.982 80.3577 172.165C84.1749 168.348 89.4249 165.986 95.2109 165.986H132.552C138.338 165.986 143.588 168.348 147.405 172.165C151.222 175.982 153.584 181.232 153.584 187.018V196.436C153.584 197.967 154.831 199.214 156.363 199.214C157.894 199.214 159.141 197.967 159.141 196.436V187.018C159.141 179.701 156.155 173.062 151.331 168.239C150.948 167.856 150.555 167.484 150.15 167.123C151.659 165.822 153.365 164.728 155.192 163.897C157.828 162.694 160.748 162.037 163.833 162.037H201.174C206.959 162.037 212.209 164.4 216.027 168.217C219.844 172.034 222.206 177.284 222.206 183.07V192.487C222.206 194.019 223.453 195.265 224.984 195.265C226.516 195.265 227.763 194.019 227.763 192.487V183.07C227.763 175.753 224.777 169.114 219.953 164.291C215.14 159.478 208.49 156.481 201.173 156.481H163.833C159.95 156.481 156.253 157.323 152.917 158.844C150.172 160.09 147.678 161.786 145.524 163.831ZM195.98 114.733C192.534 111.287 187.765 109.155 182.505 109.155C177.244 109.155 172.475 111.288 169.03 114.733C165.584 118.178 163.451 122.947 163.451 128.208C163.451 133.469 165.584 138.237 169.03 141.683C172.475 145.128 177.244 147.261 182.505 147.261C187.765 147.261 192.534 145.128 195.98 141.683C199.425 138.237 201.558 133.469 201.558 128.208C201.558 122.947 199.425 118.178 195.98 114.733ZM182.505 103.587C189.308 103.587 195.455 106.344 199.917 110.795C204.369 115.247 207.125 121.405 207.125 128.208C207.125 135.011 204.369 141.158 199.917 145.621C195.466 150.072 189.308 152.828 182.505 152.828C175.701 152.828 169.555 150.072 165.092 145.621C160.64 141.169 157.884 135.011 157.884 128.208C157.884 121.405 160.64 115.258 165.092 110.795C169.543 106.344 175.701 103.587 182.505 103.587ZM153.978 64.0375C154.941 64.814 155.991 65.4703 157.106 65.9953C159.097 66.9359 161.328 67.45 163.691 67.45H177.516V67.4609C178.063 67.4609 178.62 67.625 179.102 67.9641L192.063 76.9985L192.653 70.0859C192.73 68.6203 193.944 67.4499 195.431 67.4499C200.517 67.4499 205.111 65.9187 208.316 63.0313C211.181 60.4391 212.953 56.6876 212.953 51.8749V37.1968C212.953 32.9203 211.203 29.0155 208.371 26.1936C205.549 23.3718 201.655 21.6109 197.367 21.6109H163.692C162.576 21.6109 161.515 21.7202 160.509 21.928C160.05 22.0265 159.59 22.1468 159.142 22.278V52.8372C159.142 56.8841 157.49 60.57 154.821 63.2387C154.548 63.5121 154.264 63.7746 153.968 64.0262L153.978 64.0375ZM77.723 23.6027H27.5078C25.5718 23.6027 23.8109 24.3902 22.5422 25.6699C21.2626 26.9496 20.4751 28.7104 20.4751 30.6354V61.9926C20.4751 63.8848 21.2188 65.6021 22.4329 66.8598C23.6579 68.1395 25.3533 68.9598 27.2234 69.0364C28.7218 69.0911 29.9031 70.3379 29.8812 71.8473L29.7062 83.3209L53.1562 69.5505C53.6047 69.2223 54.1625 69.0364 54.764 69.0364H77.7218C79.6577 69.0364 81.4186 68.2489 82.6873 66.9692C83.967 65.6895 84.7545 63.9287 84.7545 62.0037V30.6465C84.7545 28.7105 83.967 26.9497 82.6873 25.681C81.4076 24.4013 79.6468 23.6138 77.7218 23.6138L77.723 23.6027ZM74.1902 18.0464V14.7104C74.1902 12.1948 75.2183 9.8978 76.8808 8.23544C78.5433 6.57308 80.8294 5.54481 83.3558 5.54481H144.421C146.937 5.54481 149.234 6.57294 150.896 8.23544C152.558 9.89794 153.587 12.184 153.587 14.7104V52.8492C153.587 55.3649 152.559 57.6619 150.896 59.3242C149.234 60.9866 146.947 62.0149 144.421 62.0149H126.013C125.346 62.0149 124.723 62.2555 124.241 62.6492L99.4788 79.4383L99.7413 65.0556C99.7631 63.5243 98.5491 62.2665 97.0178 62.2446L90.3132 62.1353V61.9931V30.6359C90.3132 27.1686 88.8914 24.0186 86.6164 21.7327C84.3304 19.4468 81.1805 18.0359 77.7241 18.0359H74.1914L74.1902 18.0464ZM27.5198 18.0464C24.0526 18.0464 20.9026 19.4682 18.6166 21.7432C16.3307 24.0292 14.9198 27.1791 14.9198 30.6464V62.0036C14.9198 65.3722 16.2651 68.4458 18.4416 70.7099C20.0166 72.3505 22.0402 73.5754 24.3152 74.1662L24.0965 88.1334C24.0855 88.6366 24.2058 89.1397 24.4793 89.5991C25.2558 90.9225 26.9511 91.36 28.2637 90.5834L55.4982 74.582H77.7232C81.1905 74.582 84.3405 73.1601 86.6155 70.8852C87.567 69.9336 88.3545 68.8508 88.967 67.6478L94.1624 67.7353L93.8562 84.6775C93.8452 85.2244 93.9983 85.7822 94.3374 86.2744C95.1906 87.5322 96.9187 87.8713 98.1765 87.0072L126.854 67.5604H144.431C145.973 67.5604 147.46 67.3198 148.86 66.8823C150.566 68.5666 152.557 69.9667 154.766 71.0058C157.501 72.2855 160.52 73.0074 163.691 73.0074H176.663L192.632 84.1528C193.059 84.5028 193.594 84.7434 194.185 84.7871C195.716 84.9184 197.051 83.7809 197.182 82.2496L197.98 72.8982C203.405 72.4279 208.338 70.4591 212.013 67.1341C216.016 63.5137 218.499 58.3623 218.499 51.8764V37.1982C218.499 31.3904 216.126 26.0968 212.298 22.2686C208.469 18.4404 203.187 16.0672 197.368 16.0672H163.692C162.238 16.0672 160.805 16.2203 159.383 16.5156C159.306 16.5375 159.219 16.5484 159.142 16.5703V14.7218C159.142 10.675 157.491 6.98908 154.822 4.3204C152.153 1.65166 148.478 0 144.42 0H83.3553C79.3085 0 75.6225 1.65155 72.9539 4.3204C70.2852 6.98925 68.6335 10.6641 68.6335 14.7218V18.0578H27.5071L27.5198 18.0464ZM111.114 20.8245V45.434C111.114 46.9652 112.361 48.2121 113.892 48.2121C115.423 48.2121 116.67 46.9652 116.67 45.434V20.8245C116.67 19.2932 115.423 18.0464 113.892 18.0464C112.361 18.0464 111.114 19.2932 111.114 20.8245ZM111.114 55.6397V55.8913C111.114 57.4225 112.361 58.6694 113.892 58.6694C115.423 58.6694 116.67 57.4225 116.67 55.8913V55.6397C116.67 54.1084 115.423 52.8616 113.892 52.8616C112.361 52.8616 111.114 54.1084 111.114 55.6397Z" fill="#219EBC"/>
</svg>
