<svg width="316" height="316" viewBox="0 0 316 316" fill="none" xmlns="http://www.w3.org/2000/svg">
<path d="M158 313C243.604 313 313 243.604 313 158C313 72.3959 243.604 3 158 3C72.3959 3 3 72.3959 3 158C3 243.604 72.3959 313 158 313Z" fill="white"/>
<path d="M158.1 0C71 0 0.100006 70.9 0.100006 158C0.100006 245.1 71 316 158.1 316C245.2 316 316.1 245.1 316.1 158C316.1 70.9 245.2 0 158.1 0ZM281.3 70.7C277.5 69.9 273.3 69.7 271.2 69.6C266 61.7 250.8 41.9 217.6 24.3L215 18.1C241.8 29 264.8 47.4 281.3 70.7ZM167.5 42.4C179.4 35.3 206 31.1 215.9 29.8C221.2 33.1 259.3 57.7 271.4 80.4C272.5 96.9 268.8 116.7 267.7 121.9L217.1 138C207.2 129.1 176.1 105.6 167 98.8L167.5 42.4ZM160.5 41.9V43.3C160.5 43.3 158.6 75.9 159.2 99.3C139.2 109.3 115.1 128.1 107.5 134.3L54.7 115.2C52.6 88.3 58.2 68.6 58.2 68.6C58.2 68.6 90.5 38 116.7 29C140.2 31.1 154.3 38 160.5 41.9ZM118.9 12.1L111.5 24.9C102.8 27.7 80.1 37.1 54.8 64C51.5 62.9 45.4 62.4 41.4 62.2C61 38.2 88 20.4 118.9 12.1ZM35.5 246.2C17.6 221.4 7.10001 190.9 7.10001 158C7.10001 157.3 7.10001 156.6 7.10001 156L16.7 163.5C16.7 169.7 18 195 38.2 229C36.1 235.4 35.6 241.8 35.5 246.2ZM44.7 229.1C44.7 229 26.5 195 22.6 168C23.6 148.9 44.6 128.7 52.2 122C59.3 124.9 86.5 136 105.9 142.1C109.1 156.8 119.1 187 123.1 199.1C115.5 207.6 96.1 229.8 85.5 244.8C69.8 242.2 53.1 233.7 44.7 229.1ZM158.1 309C140.6 309 123.8 306 108.2 300.6C111.5 299 115 296.8 117.8 295L118.2 295.4C118.2 295.4 146.6 305.8 193.5 296.3C198 298.3 203 299.8 207.2 300.9C191.8 306.1 175.3 309 158.1 309ZM193.3 289.5C179.3 291.5 144.8 295.5 120.5 290.1C104.2 278 95 256.6 92 248.5L127.9 204.5C145.4 206.5 178.9 205 191 204.3C195 210.9 211.3 237.2 223.6 253.5C215.9 268.9 201.1 282.8 193.3 289.5ZM229.9 249L197.3 200.8C204.2 186.9 214.4 156.8 218.2 145.2C229 142.2 255.8 134.7 272.9 128.1C283.9 139.5 294.5 158.5 298.3 165.7L298.1 165.9C298.1 165.9 291.8 209.8 276.8 233.9C266.8 240.8 240.4 246.8 229.9 249ZM281.3 237.1C284.7 232.6 300.5 209.2 303.8 165.1C305.5 163.5 307.4 161.7 309 160.1C308.6 190.6 299.2 219 283.2 242.6C282.7 240.6 282 238.7 281.3 237.1Z" fill="#FB8500"/>
</svg>
