<svg width="160" height="200" viewBox="0 0 160 200" fill="none" xmlns="http://www.w3.org/2000/svg">
<g clip-path="url(#clip0_25_16)">
<path fill-rule="evenodd" clip-rule="evenodd" d="M65.7646 31.2337C64.8204 31.2662 64.1042 31.4616 63.6321 31.7871C63.3554 31.9661 63.1438 32.2103 63.0135 32.5032C62.867 32.8125 62.8019 33.2031 62.8182 33.6426C62.8507 34.9284 63.5344 36.6211 64.8367 38.5742L64.853 38.6067L69.1016 45.3613C70.8109 48.0631 72.5852 50.83 74.7991 52.8483C76.9315 54.8014 79.5198 56.1198 82.9382 56.1198C86.6497 56.136 89.3519 54.7526 91.5495 52.7018C93.8447 50.5534 95.6354 47.6237 97.426 44.694L102.212 36.8164C103.107 34.7819 103.433 33.4147 103.221 32.6172C103.107 32.1452 102.57 31.901 101.675 31.8685C101.479 31.8522 101.284 31.8522 101.089 31.8685C100.877 31.8685 100.649 31.8847 100.421 31.9173C100.291 31.9336 100.177 31.9173 100.047 31.901C99.6236 31.9173 99.1841 31.901 98.7283 31.8359L100.372 24.5931C88.2124 26.5136 79.1291 17.4804 66.2855 22.7864L67.2133 31.3314C66.725 31.3151 66.2366 31.2988 65.7646 31.2337ZM80.8058 144.857C87.1706 144.857 92.3146 150.016 92.3146 156.364C92.3146 162.712 87.1543 167.871 80.8058 167.871C74.4572 167.871 69.297 162.712 69.297 156.364C69.297 150.016 74.4409 144.857 80.8058 144.857ZM17.8574 96.1751C17.662 96.2076 17.4504 96.2239 17.2388 96.2239C17.0272 96.2239 16.8318 96.2076 16.6202 96.1751H8.23685C8.13918 96.1751 8.04151 96.2076 7.96012 96.2565L7.895 96.3216C7.81361 96.403 7.7485 96.5332 7.7485 96.6634V115.478C7.7485 115.576 7.78106 115.674 7.82989 115.755L7.895 115.82C7.9764 115.902 8.10662 115.967 8.23685 115.967H18.6713C18.8503 115.95 19.0131 115.934 19.2085 115.934C19.3875 115.934 19.5666 115.95 19.7457 115.967H142.191C142.371 115.95 142.533 115.934 142.729 115.934C142.908 115.934 143.087 115.95 143.25 115.967H151.763C151.893 115.967 152.024 115.918 152.105 115.837C152.186 115.755 152.235 115.625 152.235 115.495V96.6634C152.235 96.5332 152.186 96.4192 152.089 96.3216C152.007 96.2402 151.877 96.1751 151.747 96.1751H17.8574ZM13.3645 88.4114V58.2682C13.3645 57.2754 13.7389 56.3639 14.3575 55.664L25.4268 41.748C24.2548 39.9088 23.5711 37.7116 23.5711 35.3678C23.5711 28.8086 28.8941 23.4863 35.4543 23.4863C42.0145 23.4863 47.3375 28.8086 47.3375 35.3678C47.3375 41.9271 42.0145 47.2493 35.4543 47.2493C34.0706 47.2493 32.7358 47.0052 31.4986 46.5657L21.1293 59.6028V88.4114H37.6193C37.5053 88.0208 37.4239 87.5976 37.3751 87.1419C37.5216 75.2604 35.7147 73.0468 48.2165 66.0807C52.7907 63.5254 64.6088 62.6627 69.7691 59.2773C70.5504 57.7962 71.4294 55.1432 71.9504 53.5644L71.9992 53.4017C70.1109 51.3672 68.5645 48.9583 67.0668 46.5983L62.8182 39.8437C61.2717 37.5325 60.4578 35.4166 60.409 33.6751C60.3927 32.8613 60.5229 32.1126 60.8322 31.4616C61.1415 30.778 61.6299 30.2083 62.2973 29.7689C62.6066 29.5573 62.9484 29.3945 63.3228 29.248C63.0461 25.5859 62.9484 20.9798 63.1275 17.1061C63.2251 16.1946 63.3879 15.2669 63.6484 14.3554C65.1948 8.80531 69.9807 4.8014 75.4339 2.91338C78.071 2.00192 77.0618 -0.179065 79.7314 -0.032581C86.0637 0.309216 95.847 4.3945 99.6073 8.72393C104.865 14.7949 103.514 22.2656 103.335 29.6712C104.507 30.0293 105.272 30.778 105.581 31.9824C105.923 33.317 105.549 35.205 104.426 37.7767C104.409 37.8255 104.377 37.8743 104.361 37.9069L99.5259 45.8821C97.6539 48.9583 95.7656 52.0345 93.2424 54.3945L93.1122 54.5084C93.3564 54.8502 93.6169 55.2409 93.8936 55.6478C94.7401 56.8847 95.6842 58.2845 96.5795 59.375C101.837 62.6465 113.411 63.5254 117.92 66.0481C129.429 72.4609 126.581 75.8951 127.411 87.1093C127.362 87.5651 127.281 87.9883 127.167 88.3789H151.779C154.042 88.3789 156.109 89.3066 157.607 90.804C159.105 92.3014 160.033 94.3522 160.033 96.6308V115.446C160.033 117.708 159.105 119.759 157.607 121.256L157.591 121.273C156.093 122.77 154.042 123.698 151.779 123.698H146.603V193.734C146.603 195.459 145.903 197.021 144.763 198.145C143.64 199.268 142.061 199.984 140.352 199.984H21.6177C19.8922 199.984 18.3132 199.284 17.1899 198.145C17.076 198.031 16.9783 197.933 16.8969 197.803C15.9365 196.696 15.3505 195.264 15.3505 193.701V123.698H8.23685C5.97416 123.698 3.90681 122.77 2.4092 121.273C2.31153 121.175 2.23014 121.077 2.14874 120.98C0.813918 119.548 0 117.611 0 115.478V96.6634C0 94.401 0.927867 92.334 2.42548 90.8366C2.52315 90.7389 2.62082 90.6575 2.71849 90.5599C4.18354 89.2252 6.13694 88.4114 8.23685 88.4114H13.3645ZM23.0827 123.714V192.236H138.822V123.714H23.0827ZM74.3107 66.8294C72.162 64.388 71.9829 61.8489 74.3107 59.1471C76.9966 59.8307 79.4547 60.9863 81.7174 62.5651C82.2057 62.3535 82.7755 62.2721 83.3289 62.3047C85.6893 60.6282 88.6845 59.9609 91.3216 58.7076C94.4633 61.7675 94.1215 64.567 91.0449 67.1875C89.3194 66.7968 87.6915 66.1784 86.1125 65.3808C86.08 65.7877 85.966 66.2272 85.7707 66.6992L89.1891 82.9427C91.7937 77.4576 94.4959 68.75 95.1958 61.6862C94.0564 60.4166 92.8355 58.6263 91.7937 57.0963C91.5658 56.7545 91.3379 56.429 91.11 56.1035C88.8961 57.6009 86.2428 58.5123 82.9382 58.5123C79.2431 58.4961 76.3781 57.2428 73.9851 55.306C73.3177 57.3079 72.341 60.0586 71.3806 61.3606C71.3155 61.4583 71.2341 61.5397 71.1364 61.6211C72.3899 69.3034 75.0758 77.653 77.5175 82.9427L80.936 66.6992C80.4314 65.8528 80.236 65.1367 80.2686 64.5345C78.4454 65.6412 76.4269 66.3574 74.3107 66.8294Z" fill="#219EBC"/>
</g>
<defs>
<clipPath id="clip0_25_16">
<rect width="160" height="200" fill="white"/>
</clipPath>
</defs>
</svg>
