<svg width="253" height="162" viewBox="0 0 253 162" fill="none" xmlns="http://www.w3.org/2000/svg">
<path d="M252.026 0.775541C251.47 0.247261 250.731 -0.0224993 249.949 0.00560069C231.743 0.907611 211.964 3.93398 187.714 9.52869C186.952 9.70572 186.297 10.189 185.907 10.8663C185.516 11.5435 185.429 12.3527 185.66 13.0974L188.014 20.6956C170.134 13.9151 144.985 10.012 123.216 10.8691C115.235 10.8691 106.125 14.8283 97.7992 20.7041H64.8801L67.2377 13.0946C67.4709 12.3471 67.3782 11.5407 66.9904 10.8634C66.6026 10.1862 65.9479 9.7001 65.1864 9.52588C40.9361 3.93117 21.1593 0.904802 2.9505 0.00279224C2.19461 -0.0309278 1.4331 0.241643 0.87391 0.772733C0.31472 1.30663 0 2.04285 0 2.81279V99.3138C0 100.868 1.25888 102.124 2.81 102.124H37.5922C38.823 102.124 39.9132 101.323 40.2757 100.146L41.6021 95.8659C70.2275 129.226 99.3363 159.864 122.064 159.864C126.439 159.864 130.575 158.709 134.43 156.239L135.023 156.84C137.676 159.527 141.231 161.019 145.03 161.041C145.061 161.041 145.089 161.041 145.12 161.041C148.882 161.041 152.417 159.594 155.084 156.964C157.427 154.646 158.734 151.701 159.119 148.657C161.732 150.824 164.91 151.973 168.128 151.973C171.728 151.97 175.333 150.613 178.095 147.887C181.211 144.808 182.535 140.635 182.186 136.577C183.44 136.886 184.707 137.097 185.98 137.097C189.585 137.097 193.112 135.852 195.669 133.326C198.355 130.673 199.847 127.119 199.87 123.32C199.892 119.521 198.445 115.952 195.972 113.465C194.938 112.192 193.87 110.97 192.822 109.716L211.975 98.0577L212.621 100.143C212.987 101.32 214.074 102.121 215.305 102.121H250.09C251.644 102.121 252.9 100.865 252.9 99.311V2.81279C252.9 2.04285 252.585 1.30663 252.026 0.775541ZM35.5212 96.5038H5.62V5.78296C21.9349 6.79175 39.6828 9.53431 60.9742 14.3338L35.5212 96.5038ZM191.718 129.325C188.517 132.489 182.417 132.149 178.916 128.6C178.868 128.552 178.806 128.535 178.755 128.493C178.567 128.276 178.424 128.035 178.219 127.827L147.449 96.6752C146.353 95.5737 144.58 95.5625 143.473 96.6499C142.369 97.743 142.36 99.5189 143.448 100.626L174.217 131.778C175.816 133.393 176.69 135.552 176.676 137.847C176.662 140.14 175.763 142.287 174.144 143.883C170.786 147.207 165.354 147.165 162.033 143.81L155.219 136.912C155.213 136.906 155.21 136.9 155.208 136.898L124.438 105.749C123.345 104.65 121.566 104.636 120.465 105.723C119.36 106.817 119.349 108.592 120.439 109.7L151.206 140.851C154.528 144.209 154.494 149.644 151.133 152.962C147.772 156.284 142.338 156.244 139.022 152.889L101.424 114.828C100.331 113.726 98.5523 113.709 97.4508 114.805C96.3465 115.896 96.3352 117.674 97.4255 118.779L130.333 152.091C109.441 163.258 74.8359 126.13 43.569 89.5182L63.1407 26.3297H90.7208C83.0186 33.1636 76.668 41.3238 73.6023 48.7619C69.6796 58.2766 72.2339 63.6268 75.0663 66.4396C75.1394 66.5127 75.2181 66.5829 75.2996 66.6476C86.0984 75.2096 96.7342 77.3677 113.299 60.2323C118.922 60.5752 123.71 59.6001 127.866 57.2425C151.206 73.5602 172.649 93.6629 191.791 117.216C195.112 120.574 195.079 126.009 191.718 129.325ZM189.164 105.367C171.163 84.5444 151.153 66.4677 129.547 51.5663C128.588 50.9031 127.318 50.9031 126.36 51.5635C122.645 54.1122 118.101 55.0788 112.467 54.528C111.594 54.4325 110.742 54.7641 110.144 55.3991C94.4497 72.099 86.6969 68.4825 78.9273 62.3483C76.1285 59.4287 77.3059 54.5252 78.798 50.9031C85.0475 35.7348 107.216 16.4919 123.325 16.4891C146.289 15.6095 172.919 20.0746 190.164 27.6363L210.261 92.522L189.164 105.367ZM247.28 96.5038H217.376L191.923 14.3338C213.214 9.53431 230.965 6.79175 247.277 5.78296L247.28 96.5038Z" fill="#023047"/>
</svg>
