<svg width="277" height="277" viewBox="0 0 277 277" fill="none" xmlns="http://www.w3.org/2000/svg">
<g filter="url(#filter0_d_25_9)">
<path d="M25.735 133.241C12.755 164.356 35.3132 201.911 68.0814 208.494C42.5455 191.346 26.6007 163.798 25.735 133.241Z" fill="#8ECAE6"/>
<path d="M68.0814 208.494L67.285 208.326C67.3846 208.352 67.6226 208.391 68.0814 208.494Z" fill="#8ECAE6"/>
<path d="M8.65625 191.567C10.7727 217.622 43.45 234.32 66.8998 223.647C42.7575 218.462 26.7435 213.714 8.65625 191.567Z" fill="#8ECAE6"/>
<path d="M201.275 98.6553C216.476 67.6313 194.891 29.2495 162.084 20.9092C187.183 39.2301 202.072 67.7568 201.275 98.6553Z" fill="#8ECAE6"/>
<path d="M211.494 77.2483C229.637 61.1953 222.323 29.2581 201.401 18.8619C211.485 38.6198 215.039 55.3091 211.494 77.2483Z" fill="#8ECAE6"/>
<path d="M261.934 62.087C257.829 58.9493 252.805 57.2517 247.638 57.2568C216.45 57.2568 210.858 97.8806 203.937 113.739C203.937 113.739 171.956 46.787 160.833 24.6963C149.364 1.90872 124.879 6.61772 117.708 19.0221C100.672 1.3677 68.4839 15.6202 72.587 37.0834C50.4962 35.3868 41.5673 57.1789 46.4711 71.1501C29.3966 70.622 21.4156 91.7389 27.1893 106.857C27.4879 107.645 57.8021 167.304 65.965 187.629C66.9128 189.987 67.8693 192.511 68.8735 195.168C75.4738 212.619 84.5153 236.519 107.134 255.714C116.872 263.977 130.354 268.344 146.135 268.344C173.947 268.344 204.915 254.541 225.032 233.173C243.05 214.039 251.685 190.55 250.005 165.243C248.499 142.495 255.736 121.062 261.549 103.836C267.855 85.1429 272.832 70.3753 261.934 62.087ZM236.194 164.49C239.713 214.818 189.269 257.281 146.472 257.281C133.397 257.281 119.854 255.169 111.393 247.989C87.1295 227.395 81.0398 201.911 74.0066 184.434C65.6057 163.525 44.9865 123.347 34.9929 103.135C30.9028 94.8595 37.7369 77.2484 49.6393 77.2484L83.9656 150.255L96.9716 158.063C96.9716 158.063 67.1855 93.1499 57.7545 70.7778C52.2491 57.7156 61.7364 41.9439 74.5217 43.9997L117.136 134.96L130.147 142.785L80.4772 37.9014C80.2781 19.3121 105.714 19.0221 111.627 29.8771C126.589 57.352 154.679 117.647 154.679 117.647L167.68 125.468L121.053 26.6007C130.16 14.681 146.226 16.3517 153.151 30.8206C161.469 48.198 196.696 123.676 196.696 123.676C161.919 136.712 138.18 174.501 163.036 211.754C143.313 171.026 178.254 142.244 198.895 132.731C206.707 129.125 209.581 122.309 209.581 122.309L209.563 122.313C212.286 117.383 212.126 110.791 215.372 100.123C222.405 77.032 232.052 64.7964 246.21 64.7964C249.473 64.7964 253.585 67.2374 255.472 70.0204C265.007 84.0912 232.922 117.729 236.194 164.49Z" fill="#8ECAE6"/>
</g>
<defs>
<filter id="filter0_d_25_9" x="-4" y="0" width="285" height="285" filterUnits="userSpaceOnUse" color-interpolation-filters="sRGB">
<feFlood flood-opacity="0" result="BackgroundImageFix"/>
<feColorMatrix in="SourceAlpha" type="matrix" values="0 0 0 0 0 0 0 0 0 0 0 0 0 0 0 0 0 0 127 0" result="hardAlpha"/>
<feOffset dy="4"/>
<feGaussianBlur stdDeviation="2"/>
<feComposite in2="hardAlpha" operator="out"/>
<feColorMatrix type="matrix" values="0 0 0 0 0 0 0 0 0 0 0 0 0 0 0 0 0 0 0.25 0"/>
<feBlend mode="normal" in2="BackgroundImageFix" result="effect1_dropShadow_25_9"/>
<feBlend mode="normal" in="SourceGraphic" in2="effect1_dropShadow_25_9" result="shape"/>
</filter>
</defs>
</svg>
