<svg width="254" height="162" viewBox="0 0 254 162" fill="none" xmlns="http://www.w3.org/2000/svg">
<path d="M252.433 1.1116C251.876 0.583321 251.137 0.31356 250.356 0.34166C232.15 1.24367 212.371 4.27004 188.12 9.86475C187.359 10.0418 186.704 10.5251 186.313 11.2023C185.923 11.8795 185.836 12.6888 186.066 13.4335L188.421 21.0317C170.541 14.2512 145.391 10.3481 123.622 11.2051C115.642 11.2051 106.532 15.1644 98.2058 21.0401H65.2867L67.6443 13.4306C67.8775 12.6832 67.7848 11.8767 67.397 11.1995C67.0092 10.5223 66.3545 10.0362 65.593 9.86194C41.3427 4.26723 21.5659 1.24086 3.35709 0.338852C2.6012 0.305132 1.83969 0.577702 1.2805 1.10879C0.721306 1.64269 0.406586 2.37891 0.406586 3.14885V99.6499C0.406586 101.204 1.66547 102.46 3.21659 102.46H37.9988C39.2295 102.46 40.3198 101.659 40.6823 100.482L42.0086 96.202C70.6341 129.562 99.7429 160.2 122.47 160.2C126.845 160.2 130.982 159.045 134.837 156.575L135.43 157.176C138.083 159.863 141.637 161.355 145.436 161.377C145.467 161.377 145.495 161.377 145.526 161.377C149.289 161.377 152.824 159.93 155.49 157.3C157.834 154.982 159.141 152.037 159.526 148.993C162.139 151.16 165.317 152.309 168.535 152.309C172.134 152.306 175.739 150.949 178.502 148.224C181.618 145.144 182.941 140.971 182.593 136.913C183.846 137.222 185.113 137.433 186.386 137.433C189.992 137.433 193.518 136.188 196.075 133.662C198.762 131.009 200.254 127.455 200.276 123.656C200.299 119.857 198.852 116.288 196.379 113.801C195.345 112.528 194.277 111.306 193.229 110.052L212.382 98.3938L213.028 100.479C213.393 101.656 214.481 102.457 215.712 102.457H250.497C252.051 102.457 253.307 101.201 253.307 99.6471V3.14885C253.307 2.37891 252.992 1.64269 252.433 1.1116ZM35.9278 96.8399H6.02659V6.11902C22.3414 7.12781 40.0894 9.87037 61.3808 14.6698L35.9278 96.8399ZM192.124 129.661C188.924 132.825 182.823 132.485 179.322 128.936C179.274 128.888 179.212 128.871 179.162 128.829C178.974 128.613 178.83 128.371 178.625 128.163L147.856 97.0113C146.76 95.9098 144.987 95.8985 143.88 96.986C142.775 98.0791 142.767 99.855 143.854 100.962L174.624 132.114C176.223 133.73 177.097 135.888 177.083 138.183C177.068 140.476 176.169 142.623 174.551 144.219C171.193 147.544 165.761 147.501 162.44 144.146L155.625 137.248C155.62 137.242 155.617 137.236 155.614 137.234L124.845 106.085C123.752 104.986 121.973 104.972 120.871 106.059C119.767 107.153 119.756 108.928 120.846 110.036L151.613 141.187C154.934 144.545 154.9 149.98 151.54 153.298C148.179 156.62 142.744 156.58 139.429 153.225L101.831 115.164C100.738 114.062 98.9589 114.046 97.8574 115.141C96.7531 116.232 96.7418 118.01 97.8321 119.115L130.74 152.427C109.848 163.594 75.2425 126.466 43.9756 89.8542L63.5473 26.6657H91.1274C83.4252 33.4997 77.0746 41.6599 74.0089 49.098C70.0862 58.6126 72.6404 63.9629 75.4729 66.7757C75.546 66.8487 75.6247 66.919 75.7062 66.9836C86.505 75.5457 97.1408 77.7038 113.706 60.5684C119.329 60.9112 124.117 59.9361 128.273 57.5786C151.613 73.8962 173.056 93.999 192.198 117.552C195.519 120.91 195.485 126.345 192.124 129.661ZM189.57 105.703C171.569 84.8805 151.559 66.8038 129.953 51.9024C128.995 51.2392 127.725 51.2392 126.767 51.8995C123.052 54.4482 118.508 55.4149 112.874 54.8641C112 54.7686 111.149 55.1001 110.55 55.7352C94.8563 72.435 87.1035 68.8186 79.3339 62.6843C76.5351 59.7647 77.7125 54.8613 79.2046 51.2392C85.454 36.0708 107.622 16.8279 123.732 16.8251C146.695 15.9456 173.326 20.4107 190.571 27.9724L210.668 92.8581L189.57 105.703ZM247.687 96.8399H217.783L192.33 14.6698C213.621 9.87037 231.372 7.12781 247.684 6.11902L247.687 96.8399Z" fill="#8ECAE6"/>
</svg>
