<svg width="254" height="254" viewBox="0 0 254 254" fill="none" xmlns="http://www.w3.org/2000/svg">
<path d="M126.857 191.487C91.2202 191.487 62.2266 162.496 62.2266 126.857C62.2266 91.2202 91.2202 62.2266 126.857 62.2266C162.496 62.2266 191.487 91.2202 191.487 126.857C191.487 162.496 162.496 191.487 126.857 191.487Z" fill="#F4AD29"/>
<path d="M109.019 49.8907C108.198 49.8907 107.409 49.5338 106.869 48.8904C106.197 48.0923 106.023 46.988 106.417 46.0213L124.255 2.15725C124.684 1.10069 125.713 0.406616 126.857 0.406616C128 0.406616 129.029 1.10069 129.459 2.15725L147.299 46.0213C147.693 46.988 147.516 48.0923 146.844 48.8904C146.175 49.6884 145.113 50.0537 144.096 49.8261C132.73 47.3505 120.975 47.3505 109.614 49.8261C109.418 49.871 109.218 49.8907 109.019 49.8907Z" fill="#E5C957"/>
<path d="M126.857 253.307C125.713 253.307 124.684 252.615 124.255 251.556L106.417 207.692C106.023 206.725 106.197 205.621 106.869 204.823C107.541 204.025 108.597 203.665 109.617 203.887C120.978 206.366 132.732 206.366 144.099 203.887C145.119 203.662 146.178 204.028 146.847 204.823C147.519 205.618 147.696 206.725 147.302 207.692L129.461 251.556C129.029 252.615 128 253.307 126.857 253.307Z" fill="#E5C957"/>
<path d="M47.0807 147.507C46.7238 147.507 46.3641 147.44 46.0213 147.302L2.15723 129.461C1.10067 129.029 0.406601 128 0.406601 126.857C0.406601 125.713 1.10067 124.684 2.16004 124.255L46.0241 106.417C46.988 106.023 48.0951 106.197 48.8931 106.869C49.6912 107.541 50.0509 108.6 49.8289 109.617C48.5897 115.296 47.9602 121.099 47.9602 126.857C47.9602 132.614 48.5897 138.414 49.8289 144.099C50.0509 145.116 49.6912 146.175 48.8931 146.847C48.3761 147.282 47.7326 147.507 47.0807 147.507Z" fill="#E5C957"/>
<path d="M206.633 147.507C205.983 147.507 205.337 147.282 204.823 146.847C204.025 146.178 203.665 145.119 203.887 144.099C205.124 138.417 205.753 132.614 205.753 126.857C205.753 121.099 205.124 115.296 203.887 109.617C203.665 108.6 204.025 107.541 204.823 106.869C205.618 106.197 206.722 106.023 207.692 106.417L251.556 124.255C252.615 124.684 253.307 125.713 253.307 126.857C253.307 128 252.615 129.029 251.556 129.459L207.692 147.299C207.349 147.437 206.989 147.507 206.633 147.507Z" fill="#E5C957"/>
<path d="M57.8346 85.8728C57.7559 85.8728 57.6744 85.87 57.5957 85.8615C56.556 85.7716 55.6512 85.1141 55.2466 84.1559L36.8439 40.525C36.3999 39.4712 36.6387 38.2545 37.4452 37.4452C38.2545 36.636 39.474 36.4027 40.525 36.8439L84.1558 55.2466C85.1169 55.6512 85.7744 56.556 85.8615 57.5929C85.9514 58.6326 85.4569 59.6358 84.5801 60.1978C79.6823 63.3422 75.1385 66.998 71.0669 71.0669C66.998 75.1386 63.3394 79.6823 60.1978 84.5802C59.6779 85.3895 58.7844 85.8728 57.8346 85.8728Z" fill="#E5C957"/>
<path d="M214.281 217.091C213.913 217.091 213.542 217.021 213.188 216.872L169.56 198.469C168.599 198.062 167.942 197.157 167.854 196.12C167.765 195.081 168.259 194.077 169.136 193.513C174.039 190.363 178.586 186.704 182.646 182.644C186.707 178.586 190.365 174.037 193.515 169.133C194.08 168.256 195.069 167.759 196.123 167.852C197.16 167.939 198.065 168.599 198.472 169.557L216.875 213.185C217.316 214.239 217.08 215.459 216.271 216.265C215.731 216.808 215.012 217.091 214.281 217.091Z" fill="#E5C957"/>
<path d="M195.879 85.87C194.926 85.87 194.035 85.3894 193.513 84.5802C190.363 79.6739 186.704 75.1301 182.644 71.0669C178.577 67.0008 174.031 63.3422 169.133 60.1978C168.254 59.6358 167.762 58.6326 167.852 57.5929C167.939 56.5532 168.599 55.6512 169.557 55.2466L213.185 36.8439C214.234 36.3999 215.456 36.6359 216.265 37.4452C217.074 38.2545 217.311 39.4712 216.869 40.525L198.467 84.1559C198.059 85.1169 197.154 85.7744 196.117 85.8615C196.039 85.8671 195.96 85.87 195.879 85.87Z" fill="#E5C957"/>
<path d="M39.4291 217.091C38.6985 217.091 37.9791 216.805 37.4424 216.268C36.6331 215.459 36.3943 214.242 36.8411 213.188L55.2438 169.56C55.6484 168.599 56.5532 167.942 57.5901 167.855C58.6298 167.734 59.633 168.259 60.195 169.136C63.3394 174.031 66.998 178.577 71.0641 182.646C75.1273 186.71 79.6711 190.365 84.5773 193.515C85.4541 194.08 85.9486 195.083 85.8587 196.123C85.7688 197.16 85.1112 198.065 84.153 198.472L40.5222 216.875C40.1681 217.021 39.8 217.091 39.4291 217.091Z" fill="#E5C957"/>
</svg>
